<svg t="1622605253655" class="icon" viewBox="0 0 1024 1024" version="1.1" xmlns="http://www.w3.org/2000/svg" p-id="10834" width="48" height="48"><path d="M934.4 327.68H288L234.88 112.64H89.6v32h120.96l150.4 617.92a76.8 76.8 0 1 0 82.56 27.2h216.32a74.88 74.88 0 0 0-15.68 46.08 77.12 77.12 0 1 0 76.8-76.8H391.68l-15.04-61.44h432.32z m-213.44 460.8a46.08 46.08 0 1 1-46.08 46.08 46.4 46.4 0 0 1 46.08-46.08z m-336.96 0a46.08 46.08 0 1 1-46.4 46.08A46.4 46.4 0 0 1 384 788.48z" fill="#707070" p-id="10835"></path></svg>
