<svg t="1622605114477" class="icon" viewBox="0 0 1024 1024" version="1.1" xmlns="http://www.w3.org/2000/svg" p-id="6366" width="48" height="48"><path d="M756.15744 317.12256a244.15744 244.15744 0 1 0-382.976 200.9088 383.96416 383.96416 0 0 0-244.85376 357.16608 34.88256 34.88256 0 1 0 69.76512 0A314.368 314.368 0 0 1 512 561.27488a244.42368 244.42368 0 0 0 244.15744-244.15232zM512 491.52a174.39744 174.39744 0 1 1 174.39744-174.40256A174.45888 174.45888 0 0 1 512 491.52zM793.12896 614.2976a428.64128 428.64128 0 0 0-66.27328-57.20064 34.6368 34.6368 0 0 0-39.0656 57.20064 314.50624 314.50624 0 0 1 138.12224 260.1984 34.88256 34.88256 0 0 0 69.76512 0 381.2096 381.2096 0 0 0-102.54848-260.1984z" fill="#707070" p-id="6367"></path></svg>
