<svg t="1625906849969" class="icon" viewBox="0 0 1024 1024" version="1.1" xmlns="http://www.w3.org/2000/svg" p-id="5676" width="128" height="128"><path d="M808.909224 801.515836v158.974711L650.40728 863.751273c-21.973454 3.554966-44.551682 5.64251-67.715241 5.64251-108.884896 0-178.132026-41.307801-245.444085-106.552781 11.075243 0.632403 22.102391 1.434675 33.367968 1.434675 15.790638 0 31.361265-0.776689 46.777373-2.003633 53.144384 36.252669 92.060719 58.065464 165.298744 58.065463 25.243941 0 49.655933-2.858094 73.158207-7.719822l90.586134 45.939285v-81.543177c85.058235-47.521317 142.701073-130.806161 142.701073-224.244251 0-59.105143-18.165732-112.24441-56.220443-156.424632 2.535753-17.246803 4.269233-34.698267 4.269234-52.526307 0-8.156774-0.89744-16.117073-1.434676-24.153096 70.422909 58.08286 114.543779 139.928936 114.54378 230.878344 0 102.014418-55.440683 192.608739-141.386124 250.971985z m-367.601263-93.304036c-23.166629 0-73.134671-3.828188-95.110171-7.382131l-170.564677 96.569406V634.31272c-73.886801-62.348-101.929484-142.617162-101.929484-244.630557 0-176.090531 163.636894-326.173734 366.945323-326.173734 169.009252 0 346.559017 150.08218 346.559017 326.173734 0.001023 176.09974-142.879128 318.529637-345.900008 318.529637z m-0.659009-583.545476c-176.643116 0-305.787428 117.956505-305.787428 265.015839 0 93.442182 32.951483 168.750355 101.929484 224.244251v81.543178l103.080703-51.034327c23.503297 4.857635 76.19231 7.711636 101.438297 7.711635 171.787528 0 284.74109-115.3921 284.741089-262.46576 0-147.05831-144.792711-265.014816-285.402145-265.014816zM583.350025 430.454776c-22.517853 0-40.771589-18.253736-40.771589-40.771589 0-22.517853 18.253736-40.771589 40.771589-40.771589s40.771589 18.253736 40.771589 40.771589c0 22.517853-18.252713 40.771589-40.771589 40.771589z m-163.086356 0c-22.517853 0-40.771589-18.253736-40.771589-40.771589 0-22.517853 18.253736-40.771589 40.771589-40.771589 22.515806 0 40.771589 18.253736 40.771589 40.771589 0 22.517853-18.255783 40.771589-40.771589 40.771589z m-163.087379 0c-22.517853 0-40.771589-18.253736-40.771588-40.771589 0-22.517853 18.253736-40.771589 40.771588-40.771589 22.515806 0 40.771589 18.253736 40.771589 40.771589 0 22.517853-18.254759 40.771589-40.771589 40.771589z" p-id="5677" fill="#d4237a"></path></svg>
