<svg t="1625906733491" class="icon" viewBox="0 0 1024 1024" version="1.1" xmlns="http://www.w3.org/2000/svg" p-id="3318" width="128" height="128"><path d="M870.4 534.4a22.4 22.4 0 0 1 22.016 18.368l0.384 4.032v262.848c0 62.336-46.08 113.856-104.896 117.76l-7.104 0.192H243.2c-59.776 0-108.16-49.152-111.808-110.528l-0.192-7.424V556.8a22.4 22.4 0 0 1 44.416-4.032l0.384 4.032v262.848c0 38.528 27.328 69.76 61.44 72.896l5.76 0.256h537.6c34.816 0 64-29.12 66.944-66.816l0.256-6.4V556.8a22.4 22.4 0 0 1 22.4-22.4z" p-id="3319"></path><path d="M792.704 86.4H231.296a112 112 0 0 0-109.632 89.024L86.72 373.76C86.4 464.192 156.608 534.4 243.2 534.4l8.32-0.192a156.736 156.736 0 0 0 124.352-72.96L377.6 458.24l1.728 2.88A156.672 156.672 0 0 0 512 534.4l8.32-0.192a156.736 156.736 0 0 0 124.352-72.96l1.728-2.944 1.728 2.88A156.8 156.8 0 0 0 937.6 377.6l-34.176-195.776a111.808 111.808 0 0 0-110.72-95.424z m-561.408 44.8h561.408c33.408 0 61.76 24.576 66.56 57.728l33.92 192.576c-0.384 57.92-50.56 108.096-112.384 108.096a112 112 0 0 1-112-112c0-29.888-44.8-29.888-44.8 0a112 112 0 0 1-224 0c0-29.888-44.8-29.888-44.8 0a112 112 0 0 1-224 0l33.472-187.968a67.392 67.392 0 0 1 66.624-58.432z" p-id="3320"></path></svg>
